<?xml version="1.0" standalone="no"?>
<!DOCTYPE svg PUBLIC "-//W3C//DTD SVG 20010904//EN"
 "http://www.w3.org/TR/2001/REC-SVG-20010904/DTD/svg10.dtd">
<svg version="1.0" xmlns="http://www.w3.org/2000/svg"
 width="2878.000000pt" height="1645.000000pt" viewBox="0 0 2878.000000 1645.000000"
 preserveAspectRatio="xMidYMid meet">
<metadata>
Created by potrace 1.16, written by Peter Selinger 2001-2019
</metadata>
<g transform="translate(0.000000,1645.000000) scale(0.100000,-0.100000)"
fill="#000000" stroke="none">
<path d="M26700 15513 c-73 -7 -236 -46 -319 -75 -417 -147 -751 -487 -890
-905 -102 -305 -99 -653 6 -949 l29 -81 -1106 -671 c-608 -369 -1110 -672
-1116 -674 -6 -2 -45 38 -86 88 -207 248 -496 417 -838 490 -134 29 -431 27
-569 -4 -281 -63 -506 -182 -704 -371 -207 -198 -338 -422 -408 -696 -124
-494 17 -1015 371 -1375 228 -231 512 -374 838 -421 120 -17 402 -6 512 19
275 64 513 195 710 389 61 60 110 101 118 98 24 -9 2267 -1277 2279 -1289 10
-9 6 -31 -16 -101 -43 -134 -62 -267 -62 -429 -1 -246 41 -428 146 -643 199
-407 556 -684 1013 -785 141 -32 433 -31 579 0 582 126 1009 553 1135 1135 29
135 32 425 5 560 -60 296 -192 543 -406 758 -166 165 -346 278 -556 348 -534
177 -1115 38 -1505 -358 l-84 -87 -1146 648 c-630 356 -1149 649 -1155 651 -5
2 3 43 18 93 51 166 60 235 61 434 0 156 -4 201 -23 290 -13 58 -24 111 -25
118 0 7 509 322 1133 701 l1134 688 72 -71 c219 -217 490 -354 800 -403 134
-21 412 -13 535 15 280 65 514 195 715 397 208 207 332 437 397 732 29 134 32
425 5 558 -81 398 -299 727 -626 943 -248 164 -517 244 -811 240 -69 -1 -141
-3 -160 -5z m415 -493 c327 -89 588 -338 688 -655 38 -122 51 -221 44 -348
-13 -241 -104 -449 -276 -630 -291 -306 -740 -386 -1126 -203 -283 134 -479
389 -546 711 -22 102 -15 294 14 406 47 180 120 310 252 447 136 143 310 241
504 283 118 26 331 21 446 -11z m-4750 -2764 c239 -71 432 -211 563 -410 260
-397 199 -920 -145 -1246 -343 -326 -839 -365 -1238 -97 -75 50 -198 174 -247
248 -125 190 -189 417 -173 619 36 446 348 805 785 901 126 28 332 21 455 -15z
m4771 -2751 c374 -95 663 -406 729 -784 108 -615 -386 -1177 -1010 -1148 -147
7 -245 32 -380 96 -119 57 -197 114 -292 214 -123 130 -211 296 -248 472 -21
95 -24 283 -6 370 77 374 332 659 691 769 165 51 344 55 516 11z"/>
<path d="M26756 14489 c-109 -26 -229 -126 -280 -232 -53 -113 -54 -259 -1
-375 35 -75 125 -166 204 -205 63 -31 71 -32 186 -32 110 0 125 2 179 28 119
55 199 146 236 266 71 228 -54 472 -279 542 -67 20 -176 24 -245 8z"/>
<path d="M22031 11739 c-222 -43 -377 -264 -342 -487 56 -357 493 -498 740
-237 131 138 158 334 69 508 -80 159 -283 252 -467 216z"/>
<path d="M26790 8979 c-129 -22 -252 -114 -309 -231 -62 -129 -61 -263 4 -395
77 -156 231 -242 412 -230 159 10 290 99 362 247 34 72 36 80 36 180 0 86 -5
116 -23 163 -76 189 -278 301 -482 266z"/>
<path d="M4011 15350 c-1182 -93 -2210 -697 -2868 -1685 -375 -562 -606 -1214
-685 -1930 -21 -188 -17 -832 5 -1010 126 -994 509 -1814 1147 -2456 621 -624
1390 -987 2290 -1081 184 -19 630 -16 813 6 583 68 1096 244 1574 540 467 289
900 718 1199 1191 l49 77 3 -846 2 -847 1608 4 c1442 3 1620 5 1732 20 488 66
883 183 1271 377 718 358 1279 921 1643 1648 73 145 162 353 170 394 2 14 25
89 50 166 84 258 148 556 182 847 9 77 19 273 23 435 4 162 8 247 9 189 l2
-105 88 -73 c188 -157 454 -311 752 -436 268 -112 652 -233 1225 -385 1030
-274 1393 -470 1482 -801 12 -45 17 -101 16 -189 0 -107 -4 -137 -26 -206 -99
-303 -404 -487 -886 -534 -131 -13 -264 -13 -427 0 -682 55 -1303 322 -1962
846 -74 58 -135 104 -136 102 -23 -33 -816 -1392 -816 -1398 0 -11 218 -194
334 -280 692 -511 1423 -757 2401 -810 707 -38 1268 37 1762 236 335 134 588
298 824 533 179 179 295 341 404 562 l52 106 74 -91 c100 -123 350 -372 479
-477 214 -175 431 -318 661 -434 395 -200 775 -311 1254 -367 161 -19 651 -16
845 6 833 90 1447 367 2060 928 121 111 411 414 432 452 8 15 3 25 -28 57 -32
31 -1261 799 -1280 799 -3 0 -63 -46 -132 -102 -468 -376 -908 -538 -1462
-539 -104 0 -219 6 -284 16 -963 135 -1683 982 -1811 2129 -20 174 -19 514 1
686 129 1130 849 1967 1812 2106 139 20 413 20 555 0 384 -55 752 -213 1092
-469 49 -37 94 -66 100 -63 25 9 1351 889 1374 911 l24 23 -32 40 c-40 51
-218 221 -346 331 -540 464 -1137 728 -1860 821 -1127 145 -2113 -108 -2925
-751 -146 -115 -457 -428 -579 -583 -526 -664 -834 -1482 -901 -2391 -5 -77
-10 -146 -10 -153 0 -7 -66 21 -157 67 -197 98 -448 199 -708 284 -185 60
-315 97 -830 237 -951 257 -1268 436 -1349 761 -21 85 -21 274 -1 353 37 140
141 278 273 364 336 217 921 229 1513 32 335 -112 712 -304 1082 -552 65 -44
122 -78 128 -76 9 3 792 1388 787 1393 -45 41 -332 245 -430 306 -549 341
-1102 519 -1838 591 -179 17 -779 17 -920 0 -400 -49 -713 -136 -1015 -281
-265 -128 -461 -266 -661 -465 -289 -288 -473 -612 -573 -1007 l-27 -106 -73
119 c-186 303 -437 603 -695 826 -55 48 -119 105 -141 127 -23 22 -91 74 -151
117 -450 315 -948 521 -1509 623 -340 61 -244 58 -1992 62 l-1603 4 0 -836 0
-837 -88 134 c-426 641 -1032 1137 -1727 1411 -318 125 -619 200 -975 242
-160 19 -578 27 -739 15z m524 -1621 c364 -40 751 -205 1048 -448 774 -632
1088 -1801 772 -2871 -232 -787 -809 -1375 -1530 -1558 -200 -51 -298 -62
-521 -62 -249 -1 -452 32 -668 107 -588 204 -1065 679 -1320 1314 -210 525
-258 1146 -130 1717 168 754 632 1358 1261 1640 337 151 694 204 1088 161z
m6086 -99 c392 -40 772 -188 1074 -419 85 -64 256 -232 328 -321 285 -353 458
-795 513 -1312 22 -207 15 -584 -15 -778 -82 -535 -294 -979 -626 -1313 -327
-328 -766 -533 -1257 -586 -59 -7 -375 -11 -798 -11 l-700 0 0 2375 0 2375
689 0 c406 0 731 -4 792 -10z"/>
<path d="M320 4040 l0 -2340 13975 0 13975 0 0 2340 0 2340 -13975 0 -13975 0
0 -2340z m3640 1702 c0 -4 -34 -176 -75 -382 -41 -206 -75 -380 -75 -387 0
-10 46 -13 215 -13 118 0 215 3 215 8 1 4 36 180 78 392 l78 385 234 3 c128 1
237 -1 240 -5 4 -5 -28 -177 -71 -383 -43 -206 -78 -381 -78 -387 -1 -10 32
-13 134 -13 l135 0 0 -230 0 -230 -183 0 -184 0 -58 -287 c-32 -159 -60 -294
-62 -300 -4 -10 48 -13 241 -13 l246 0 0 -225 0 -225 -290 0 -290 0 -5 -22
c-6 -28 -155 -761 -155 -765 0 -2 -103 -3 -230 -3 -185 0 -230 3 -230 13 0 13
135 706 147 755 l5 22 -221 0 c-221 0 -221 0 -226 -22 -3 -13 -35 -169 -70
-347 -36 -178 -70 -345 -76 -372 l-11 -49 -234 0 c-129 0 -234 4 -234 9 0 4
35 182 79 395 l79 386 -139 0 -139 0 0 225 0 225 185 0 c102 0 185 1 185 3 0
6 109 544 115 570 l7 27 -246 0 -246 0 2 228 3 227 290 5 289 5 80 393 80 392
233 0 c128 0 233 -4 233 -8z m2864 -22 c232 -39 397 -115 533 -244 128 -121
192 -224 238 -383 15 -48 29 -125 32 -170 l6 -81 -54 -6 c-30 -3 -121 -8 -204
-11 -82 -3 -195 -8 -251 -11 l-101 -7 -13 63 c-18 86 -70 190 -120 240 -91 91
-256 137 -460 127 -176 -9 -319 -57 -392 -134 -82 -85 -76 -224 13 -311 73
-72 195 -118 560 -212 545 -140 720 -218 885 -392 145 -152 208 -309 220 -548
14 -257 -66 -482 -235 -663 -156 -166 -354 -259 -643 -304 -158 -24 -473 -23
-623 1 -439 71 -719 294 -859 684 -27 77 -66 251 -66 299 l0 29 291 28 c159
15 292 27 293 25 2 -2 15 -46 30 -97 60 -212 144 -326 302 -405 159 -80 440
-88 626 -17 258 97 360 391 192 554 -75 73 -174 109 -607 221 -452 116 -656
210 -803 367 -153 164 -217 324 -218 543 0 132 16 215 64 321 137 305 430 477
880 518 99 9 370 -4 484 -24z m8436 -610 l0 -590 585 0 585 0 0 590 0 590 305
0 305 0 0 -1495 0 -1495 -305 0 -305 0 0 650 0 650 -585 0 -585 0 0 -650 0
-650 -305 0 -305 0 0 1495 0 1495 305 0 305 0 0 -590z m-6145 -240 l195 0 0
-230 0 -230 -196 0 -196 0 4 -582 c3 -657 0 -628 80 -669 51 -26 114 -23 226
11 41 12 76 19 79 16 3 -3 16 -103 29 -223 19 -172 21 -218 12 -225 -26 -16
-141 -50 -216 -64 -105 -18 -330 -18 -411 1 -148 35 -261 114 -310 218 -62
132 -64 147 -68 865 l-5 652 -129 0 -129 0 0 230 0 230 130 0 130 0 0 218 0
217 288 167 287 168 3 -385 2 -385 195 0z m1801 39 c222 -24 375 -88 490 -203
152 -152 171 -266 160 -956 -9 -605 5 -752 90 -954 19 -44 34 -82 34 -83 0 -2
-130 -3 -288 -3 l-289 0 -33 108 c-18 59 -34 109 -35 110 -2 2 -32 -21 -68
-51 -120 -102 -260 -171 -409 -202 -105 -23 -313 -20 -418 5 -134 32 -222 81
-316 175 -117 117 -167 228 -180 400 -13 185 46 347 175 476 123 124 267 181
631 254 220 43 357 76 464 112 l79 26 -6 78 c-7 92 -37 169 -78 203 -56 48
-120 61 -289 61 -150 0 -157 -1 -212 -28 -66 -33 -115 -87 -153 -170 -17 -37
-32 -57 -44 -57 -16 0 -444 74 -488 85 -21 5 -21 7 -9 48 47 150 117 267 218
363 115 109 247 168 443 198 109 17 401 20 531 5z m8043 -4 c298 -49 550 -211
720 -465 67 -100 113 -204 149 -339 23 -87 25 -114 26 -296 1 -211 -5 -257
-51 -400 -95 -298 -323 -546 -609 -665 -155 -64 -217 -75 -449 -74 -195 0
-217 2 -307 26 -325 88 -543 249 -677 500 -139 256 -178 648 -95 938 123 425
422 696 853 774 104 19 325 19 440 1z m2846 -15 c90 -29 126 -48 201 -104 54
-40 155 -155 167 -189 2 -7 46 28 99 79 108 104 214 171 333 211 73 25 94 27
240 27 182 1 241 -10 365 -71 103 -50 213 -159 263 -263 72 -147 70 -121 74
-1042 l4 -828 -290 0 -290 0 -4 743 c-3 669 -5 749 -21 810 -23 88 -65 144
-136 180 -51 27 -61 28 -150 25 -83 -4 -103 -8 -158 -36 -82 -42 -137 -100
-178 -187 -63 -133 -66 -168 -71 -887 l-5 -648 -289 0 -289 0 0 679 c0 384 -4
724 -10 782 -14 138 -51 219 -124 264 -44 27 -59 30 -142 33 -113 5 -193 -18
-268 -76 -91 -69 -141 -169 -167 -337 -6 -41 -13 -331 -16 -707 l-6 -638 -288
0 -289 0 0 1080 0 1080 270 0 270 0 0 -136 0 -137 78 74 c136 130 255 196 422
235 89 21 318 12 405 -16z m3450 15 c360 -63 618 -285 735 -631 42 -123 68
-267 80 -441 5 -81 10 -163 10 -180 l0 -33 -720 0 -721 0 7 -52 c17 -149 59
-250 139 -336 65 -71 132 -108 227 -128 204 -43 367 48 435 244 10 28 24 52
31 52 7 0 134 -20 282 -45 148 -25 271 -45 274 -45 23 0 -45 -158 -111 -257
-120 -182 -310 -312 -539 -370 -55 -14 -113 -18 -289 -18 -244 0 -317 12 -470
76 -314 130 -514 426 -565 833 -17 134 -7 411 18 531 48 221 127 378 261 519
158 164 339 260 546 289 77 10 289 6 370 -8z m-12431 -787 c138 -411 254 -748
257 -748 3 0 116 336 251 748 l245 747 302 3 c165 1 301 0 301 -2 0 -25 -915
-2499 -956 -2585 -120 -253 -240 -360 -474 -423 -75 -20 -109 -22 -280 -23
-126 0 -219 5 -262 14 -38 7 -68 15 -68 17 0 2 -11 103 -25 225 -14 122 -24
224 -22 226 2 2 26 -1 53 -6 227 -43 400 -7 487 104 40 50 102 171 122 235
l17 55 -391 1034 c-216 568 -401 1055 -411 1082 l-20 49 311 -2 312 -3 251
-747z"/>
<path d="M3710 4497 c0 -5 -109 -549 -115 -574 l-5 -23 220 0 c121 0 220 1
220 3 0 5 109 549 115 575 l5 22 -220 0 c-121 0 -220 -1 -220 -3z"/>
<path d="M10952 3724 c-24 -7 -132 -34 -240 -59 -108 -25 -232 -57 -275 -72
-136 -47 -197 -122 -197 -244 0 -80 23 -133 83 -192 138 -139 412 -108 572 65
77 82 94 143 102 356 3 89 4 162 2 161 -2 -1 -23 -7 -47 -15z"/>
<path d="M18633 4435 c-184 -41 -331 -194 -389 -405 -15 -51 -19 -102 -19
-240 0 -197 16 -278 78 -395 43 -80 138 -173 218 -212 296 -144 620 16 714
352 26 92 32 349 11 456 -52 265 -233 438 -475 454 -47 3 -99 -1 -138 -10z"/>
<path d="M24949 4456 c-74 -28 -116 -56 -165 -108 -78 -83 -115 -169 -129
-305 l-7 -63 426 0 427 0 -7 53 c-23 200 -102 330 -242 399 -60 30 -76 33
-167 35 -65 2 -112 -2 -136 -11z"/>
</g>
</svg>
